<svg xmlns="http://www.w3.org/2000/svg" viewBox="0 0 1000 1000" width="1000" height="1000" fill="none">
<defs><linearGradient id="goldMono" gradientUnits="userSpaceOnUse" x1="-240" y1="-770" x2="300" y2="60"><stop offset="0.0" stop-color="#6f4f22"/><stop offset="0.16" stop-color="#b98f3f"/><stop offset="0.34" stop-color="#e7cd86"/><stop offset="0.46" stop-color="#faf0c8"/><stop offset="0.6" stop-color="#dcb35f"/><stop offset="0.8" stop-color="#a87d38"/><stop offset="1.0" stop-color="#6f4f22"/></linearGradient><linearGradient id="goldWord" gradientUnits="objectBoundingBox" x1="0" y1="0" x2="0" y2="1"><stop offset="0" stop-color="#eBD79a"/><stop offset="0.5" stop-color="#d6b263"/><stop offset="1" stop-color="#a17836"/></linearGradient></defs>
<path d="M221.84 317.62 A300 300 0 0 1 778.16 317.62" stroke="#c8a44f" stroke-width="3.2" fill="none" stroke-linecap="round"/>
<path d="M778.16 542.38 A300 300 0 0 1 221.84 542.38" stroke="#c8a44f" stroke-width="3.2" fill="none" stroke-linecap="round"/>
<g fill="#c8a44f"><circle cx="778.16" cy="317.62" r="5.50"/></g>
<g fill="#c8a44f"><circle cx="221.84" cy="542.38" r="5.50"/></g>

  <g transform="translate(500,648) scale(0.56)">
    <mask id="pknock" maskUnits="userSpaceOnUse" x="-1200" y="-1200" width="2400" height="2400">
      <rect x="-1200" y="-1200" width="2400" height="2400" fill="#fff"/>
      <g transform="translate(-511,0)"><path d="M292.7994384765625 -721.3999633789062Q354.79925537109375 -721.3999633789062 388.79913330078125 -708.6999816894531Q422.79901123046875 -696.0 446.7989501953125 -682.0Q458.7989501953125 -675.0 466.2989501953125 -671.5Q473.7989501953125 -668.0 480.7989501953125 -668.0Q490.7989501953125 -668.0 495.2989501953125 -679.0Q499.7989501953125 -690.0 502.7989501953125 -712.0H525.7989501953125Q524.7989501953125 -691.800048828125 523.2989501953125 -664.7001037597656Q521.7989501953125 -637.6001586914062 521.2989501953125 -593.1002502441406Q520.7989501953125 -548.600341796875 520.7989501953125 -476.00048828125H497.7989501953125Q493.99896240234375 -529.6004028320312 473.1990051269531 -580.0003051757812Q452.3990478515625 -630.4002075195312 415.49908447265625 -663.2001342773438Q378.59912109375 -696.0000610351562 325.799072265625 -696.0000610351562Q279.99896240234375 -696.0000610351562 249.89889526367188 -670.3999633789062Q219.798828125 -644.7998657226562 219.798828125 -598.3997802734375Q219.798828125 -559.7996826171875 238.79888916015625 -532.4996337890625Q257.7989501953125 -505.1995849609375 296.2989501953125 -477.0996398925781Q334.7989501953125 -448.99969482421875 394.19873046875 -408.19989013671875Q440.59881591796875 -376.9998779296875 477.89886474609375 -345.8998718261719Q515.1989135742188 -314.79986572265625 537.4989318847656 -275.9998779296875Q559.7989501953125 -237.19989013671875 559.7989501953125 -182.39990234375Q559.7989501953125 -115.99993896484375 523.9990539550781 -72.39996337890625Q488.19915771484375 -28.79998779296875 428.99932861328125 -7.399993896484375Q369.79949951171875 14.0 299.7996826171875 14.0Q234.79986572265625 14.0 196.19998168945312 2.0Q157.60009765625 -10.0 130.8001708984375 -23.0Q108.8001708984375 -37.0 96.8001708984375 -37.0Q86.8001708984375 -37.0 82.3001708984375 -26.0Q77.8001708984375 -15.0 74.8001708984375 7.0H51.8001708984375Q53.8001708984375 -17.99993896484375 54.3001708984375 -51.29986572265625Q54.8001708984375 -84.59979248046875 55.3001708984375 -137.7996826171875Q55.8001708984375 -190.99957275390625 55.8001708984375 -272.9993896484375H78.8001708984375Q82.8001708984375 -204.99951171875 101.3001708984375 -145.79962158203125Q119.8001708984375 -86.5997314453125 158.3001708984375 -50.2998046875Q196.8001708984375 -13.9998779296875 260.8001708984375 -13.9998779296875Q297.0001220703125 -13.9998779296875 324.10015869140625 -25.89990234375Q351.2001953125 -37.7999267578125 367.000244140625 -61.300018310546875Q382.80029296875 -84.80010986328125 382.80029296875 -119.00030517578125Q382.80029296875 -160.80029296875 363.7002868652344 -192.10028076171875Q344.60028076171875 -223.4002685546875 311.6002502441406 -250.70025634765625Q278.6002197265625 -278.000244140625 234.8001708984375 -306.000244140625Q187.8001708984375 -337.40020751953125 146.8001708984375 -369.00018310546875Q105.8001708984375 -400.60015869140625 81.3001708984375 -440.5001525878906Q56.8001708984375 -480.400146484375 56.8001708984375 -535.6001586914062Q56.8001708984375 -600.2000732421875 90.10006713867188 -641.1000366210938Q123.39996337890625 -682.0 177.59979248046875 -701.6999816894531Q231.79962158203125 -721.3999633789062 292.7994384765625 -721.3999633789062Z" fill="#000" stroke="#000" stroke-width="34" stroke-linejoin="round"/></g>
    </mask>
    <g transform="translate(-182,0)"><path d="M30.8001708984375 -708.0Q58.2000732421875 -707.0 102.99990844726562 -706.0Q147.79974365234375 -705.0 192.799560546875 -705.0Q242.19952392578125 -705.0 287.5994873046875 -706.0Q332.99945068359375 -707.0 351.7994384765625 -707.0Q497.59906005859375 -707.0 569.1988830566406 -652.0Q640.7987060546875 -597.0 640.7987060546875 -510.0Q640.7987060546875 -474.0 626.3987426757812 -434.5Q611.998779296875 -395.0 577.2988586425781 -361.5Q542.5989379882812 -328.0 482.3990783691406 -307.0Q422.19921875 -286.0 329.7994384765625 -286.0H225.799560546875V-306.0H319.7994384765625Q374.7996826171875 -306.0 403.49981689453125 -333.0Q432.199951171875 -360.0 442.5 -404.0Q452.800048828125 -448.0 452.800048828125 -499.0Q452.800048828125 -594.0 428.099853515625 -641.0Q403.399658203125 -688.0 342.7991943359375 -688.0Q306.3990478515625 -688.0 295.5989990234375 -671.0Q284.7989501953125 -654.0 284.7989501953125 -602.0V-113.9998779296875Q284.7989501953125 -73.99993896484375 293.09893798828125 -54.39996337890625Q301.39892578125 -34.79998779296875 324.9989013671875 -28.79998779296875Q348.598876953125 -22.79998779296875 393.798828125 -22.39996337890625V0.0Q361.39892578125 -1.20001220703125 309.39910888671875 -2.100006103515625Q257.3992919921875 -3.0 199.59954833984375 -3.0Q154.9996337890625 -3.0 111.3997802734375 -2.100006103515625Q67.7999267578125 -1.20001220703125 30.8001708984375 0.0V-20.0Q62.40020751953125 -22.0 77.90023803710938 -28.0Q93.4002685546875 -34.0 98.60028076171875 -52.0Q103.80029296875 -70.0 103.80029296875 -106.0V-602.0Q103.80029296875 -639.0 98.60028076171875 -656.5Q93.4002685546875 -674.0 77.500244140625 -680.5Q61.6002197265625 -687.0 30.8001708984375 -688.0Z" fill="url(#goldMono)" mask="url(#pknock)"/></g>
    <g transform="translate(-511,0)"><path d="M292.7994384765625 -721.3999633789062Q354.79925537109375 -721.3999633789062 388.79913330078125 -708.6999816894531Q422.79901123046875 -696.0 446.7989501953125 -682.0Q458.7989501953125 -675.0 466.2989501953125 -671.5Q473.7989501953125 -668.0 480.7989501953125 -668.0Q490.7989501953125 -668.0 495.2989501953125 -679.0Q499.7989501953125 -690.0 502.7989501953125 -712.0H525.7989501953125Q524.7989501953125 -691.800048828125 523.2989501953125 -664.7001037597656Q521.7989501953125 -637.6001586914062 521.2989501953125 -593.1002502441406Q520.7989501953125 -548.600341796875 520.7989501953125 -476.00048828125H497.7989501953125Q493.99896240234375 -529.6004028320312 473.1990051269531 -580.0003051757812Q452.3990478515625 -630.4002075195312 415.49908447265625 -663.2001342773438Q378.59912109375 -696.0000610351562 325.799072265625 -696.0000610351562Q279.99896240234375 -696.0000610351562 249.89889526367188 -670.3999633789062Q219.798828125 -644.7998657226562 219.798828125 -598.3997802734375Q219.798828125 -559.7996826171875 238.79888916015625 -532.4996337890625Q257.7989501953125 -505.1995849609375 296.2989501953125 -477.0996398925781Q334.7989501953125 -448.99969482421875 394.19873046875 -408.19989013671875Q440.59881591796875 -376.9998779296875 477.89886474609375 -345.8998718261719Q515.1989135742188 -314.79986572265625 537.4989318847656 -275.9998779296875Q559.7989501953125 -237.19989013671875 559.7989501953125 -182.39990234375Q559.7989501953125 -115.99993896484375 523.9990539550781 -72.39996337890625Q488.19915771484375 -28.79998779296875 428.99932861328125 -7.399993896484375Q369.79949951171875 14.0 299.7996826171875 14.0Q234.79986572265625 14.0 196.19998168945312 2.0Q157.60009765625 -10.0 130.8001708984375 -23.0Q108.8001708984375 -37.0 96.8001708984375 -37.0Q86.8001708984375 -37.0 82.3001708984375 -26.0Q77.8001708984375 -15.0 74.8001708984375 7.0H51.8001708984375Q53.8001708984375 -17.99993896484375 54.3001708984375 -51.29986572265625Q54.8001708984375 -84.59979248046875 55.3001708984375 -137.7996826171875Q55.8001708984375 -190.99957275390625 55.8001708984375 -272.9993896484375H78.8001708984375Q82.8001708984375 -204.99951171875 101.3001708984375 -145.79962158203125Q119.8001708984375 -86.5997314453125 158.3001708984375 -50.2998046875Q196.8001708984375 -13.9998779296875 260.8001708984375 -13.9998779296875Q297.0001220703125 -13.9998779296875 324.10015869140625 -25.89990234375Q351.2001953125 -37.7999267578125 367.000244140625 -61.300018310546875Q382.80029296875 -84.80010986328125 382.80029296875 -119.00030517578125Q382.80029296875 -160.80029296875 363.7002868652344 -192.10028076171875Q344.60028076171875 -223.4002685546875 311.6002502441406 -250.70025634765625Q278.6002197265625 -278.000244140625 234.8001708984375 -306.000244140625Q187.8001708984375 -337.40020751953125 146.8001708984375 -369.00018310546875Q105.8001708984375 -400.60015869140625 81.3001708984375 -440.5001525878906Q56.8001708984375 -480.400146484375 56.8001708984375 -535.6001586914062Q56.8001708984375 -600.2000732421875 90.10006713867188 -641.1000366210938Q123.39996337890625 -682.0 177.59979248046875 -701.6999816894531Q231.79962158203125 -721.3999633789062 292.7994384765625 -721.3999633789062Z" fill="url(#goldMono)"/></g>
  </g>
<g fill="url(#goldMono)"><path d="M500.00 46.00 L503.90 72.10 L530.00 76.00 L503.90 79.90 L500.00 106.00 L496.10 79.90 L470.00 76.00 L496.10 72.10 Z M500.00 76.00 L498.57 77.43 L508.91 84.91 L501.43 74.57 Z M500.00 76.00 L498.57 74.57 L491.09 84.91 L501.43 77.43 Z M500.00 76.00 L501.43 74.57 L491.09 67.09 L498.57 77.43 Z M500.00 76.00 L501.43 77.43 L508.91 67.09 L498.57 74.57 Z"/></g>
<g fill="#c8a44f"><path d="M500.00 758.00 L503.38 780.62 L526.00 784.00 L503.38 787.38 L500.00 810.00 L496.62 787.38 L474.00 784.00 L496.62 780.62 Z M500.00 784.00 L498.76 785.24 L507.72 791.72 L501.24 782.76 Z M500.00 784.00 L498.76 782.76 L492.28 791.72 L501.24 785.24 Z M500.00 784.00 L501.24 782.76 L492.28 776.28 L498.76 785.24 Z M500.00 784.00 L501.24 785.24 L507.72 776.28 L498.76 782.76 Z"/></g>
<g fill="#c8a44f"><circle cx="500.00" cy="32.00" r="2.00"/><circle cx="500.00" cy="19.00" r="3.00"/><circle cx="500.00" cy="6.00" r="4.20"/></g>
<g fill="#c8a44f"><circle cx="500.00" cy="814.00" r="4.20"/><circle cx="500.00" cy="827.00" r="3.00"/><circle cx="500.00" cy="840.00" r="2.00"/></g>
</svg>